<?xml version="1.0" encoding="utf-8"?>
<!-- Generator: Adobe Illustrator 23.0.4, SVG Export Plug-In . SVG Version: 6.00 Build 0)  -->
<svg version="1.1" id="Layer_1" xmlns="http://www.w3.org/2000/svg" xmlns:xlink="http://www.w3.org/1999/xlink" x="0px" y="0px"
	 viewBox="0 0 744.7 594.9" style="enable-background:new 0 0 744.7 594.9;" xml:space="preserve">
<style type="text/css">
	.st0{fill:none;stroke:#000000;stroke-width:4;stroke-linecap:round;stroke-miterlimit:10;}
	.st1{fill:none;stroke:#000000;stroke-width:2;stroke-linecap:round;stroke-miterlimit:10;}
	.st2{fill:none;stroke:#1F161E;stroke-linecap:round;stroke-miterlimit:10;}
	.st3{fill:#FBDC8E;}
	.st4{fill:#969696;}
	.st5{fill:#AB8DE5;}
	.st6{fill:#78E5E1;}
	.st7{fill:#D8D8D8;}
	.st8{fill:#64CCC4;}
	.st9{fill:#FFFFFF;}
	.st10{fill:none;stroke:#969696;stroke-width:0.82;stroke-linecap:round;stroke-linejoin:round;}
	.st11{font-family:'Arial-BoldMT';}
	.st12{font-size:7.3px;}
	.st13{fill:none;stroke:#000000;stroke-width:2;stroke-linecap:round;stroke-linejoin:round;}
	.st14{fill:#1F161E;}
	.st15{fill:#55B79D;}
	.st16{fill:#F8CDBA;}
	.st17{fill:#FA9E9F;}
</style>
<title>example-scene-2</title>
<ellipse cx="332" cy="477" rx="63.1" ry="14"/>
<line class="st0" x1="332" y1="477" x2="296.6" y2="587.9"/>
<line class="st0" x1="332" y1="477" x2="367.5" y2="587.9"/>
<line class="st1" x1="308.2" y1="551.5" x2="347.8" y2="526.1"/>
<line class="st1" x1="316.2" y1="526.1" x2="355.7" y2="551.5"/>
<path class="st2" d="M394.1,356.9c-0.2,4.9-0.1,22.1-0.9,29.5"/>
<path d="M184.8,132.6L184.8,132.6c3.5,0,6.3,2.8,6.3,6.3v21.8c0,3.5-2.8,6.3-6.3,6.3l0,0c-3.5,0-6.3-2.8-6.3-6.3V139
	C178.5,135.5,181.3,132.6,184.8,132.6z"/>
<circle class="st3" cx="184.8" cy="191.2" r="12.7"/>
<path class="st3" d="M609.4,342h6c1.3,0,2.4-1.1,2.4-2.4v-36.9c0-0.6-0.3-1.2-0.7-1.7l-7.6-7.6c-0.4-0.4-1-0.7-1.7-0.7h-22.4
	c-1.3,0-2.4,1.1-2.4,2.4v3.6"/>
<path d="M103.8,372.2c21.6,4.1,17.7,133.1-23.8,125.2C40.9,490.1,77.4,367.2,103.8,372.2z"/>
<path class="st3" d="M8.8,388.2C26,378.4,98,469,65.1,487.7C34,505.3-12.1,400,8.8,388.2z"/>
<path class="st4" d="M96.5,559.8H53c-3.6,0-6.7-2.7-7.1-6.4l-5.5-49.3c-0.5-3.9,2.3-7.4,6.3-8c0.2,0,0.6,0,0.8,0h54.1
	c4,0,7.1,3.2,7.1,7.2c0,0.2,0,0.5,0,0.8l-5.2,49.3C103.2,557.1,100.1,559.8,96.5,559.8z"/>
<path class="st5" d="M115.9,322c16.5,4.8,3.9,104.3-27.6,95.2C58.5,408.5,95.9,316.2,115.9,322z"/>
<path class="st3" d="M143.1,401.2c11.4,9.8-34.9,84.9-56.8,66C65.7,449.5,129.1,389.3,143.1,401.2z"/>
<path class="st6" d="M74.9,332.3c24.7,0,47.2,157.3,0,157.3C30.3,489.6,44.9,332.3,74.9,332.3z"/>
<path class="st7" d="M31.4,485.6h86.7c2.5,0,4.7,2,4.7,4.5v8.4c0,2.5-2,4.5-4.7,4.5H31.4c-2.5,0-4.5-2-4.5-4.5v-8.4
	C26.9,487.7,28.9,485.6,31.4,485.6z"/>
<path class="st7" d="M599.3,298.7h-22c-1.5,0-2.7,1.2-2.7,2.7l0,0v43.8c0,1.5,1.2,2.7,2.7,2.7h29.4c1.5,0,2.7-1.2,2.7-2.7v-36.4
	c0-0.7-0.3-1.4-0.8-1.9l-7.4-7.4C600.7,299,600,298.7,599.3,298.7z"/>
<path class="st4" d="M609.4,307.8h-7.5c-0.8,0-1.5-0.7-1.5-1.5v-7.5"/>
<path class="st8" d="M617.8,301.8h-7.5c-0.8,0-1.5-0.7-1.5-1.5v-7.5"/>
<path class="st6" d="M523.1,248.6h51.6c1.7,0,3,1.4,3,3v16.8c0,1.7-1.4,3-3,3h-51.6c-1.7,0-3-1.4-3-3v-16.8
	C520,250,521.4,248.6,523.1,248.6z"/>
<polygon class="st6" points="548.8,287.2 555.8,266.2 541.9,266.2 "/>
<polygon class="st9" points="535.1,254.8 529.3,264.8 540.9,264.8 "/>
<polygon class="st9" points="562.6,264.8 568.4,254.8 556.8,254.8 "/>
<circle class="st9" cx="548.8" cy="259.8" r="4.4"/>
<path class="st7" d="M510.5,200.1h33.8c1.5,0,2.7,1.2,2.7,2.6v20.5c0,1.5-1.2,2.6-2.7,2.6h-33.8c-1.5,0-2.6-1.2-2.6-2.6v-20.5
	C507.9,201.3,509.1,200.1,510.5,200.1z"/>
<line class="st10" x1="509.1" y1="200.9" x2="527.4" y2="213"/>
<line class="st10" x1="547" y1="200.1" x2="527.4" y2="213"/>
<circle class="st3" cx="547" cy="200.1" r="5.6"/>
<text transform="matrix(1 0 0 1 545.39 202.28)" class="st9 st11 st12">1</text>
<path class="st4" d="M579.5,303.2h7.1c0.5,0,0.9,0.4,0.9,0.9l0,0c0,0.5-0.4,0.9-0.9,0.9h-7.1c-0.5,0-0.9-0.4-0.9-0.9l0,0
	C578.5,303.7,579,303.2,579.5,303.2z"/>
<path class="st4" d="M579.5,307.8h7.1c0.5,0,0.9,0.4,0.9,0.9l0,0c0,0.5-0.4,0.9-0.9,0.9h-7.1c-0.5,0-0.9-0.4-0.9-0.9l0,0
	C578.5,308.2,579,307.8,579.5,307.8z"/>
<path class="st4" d="M579.1,315.5h25.8c0.5,0,0.9,0.4,0.9,0.9l0,0c0,0.5-0.4,0.9-0.9,0.9h-25.8c-0.5,0-0.9-0.4-0.9-0.9l0,0
	C578.1,315.9,578.6,315.5,579.1,315.5z"/>
<path class="st4" d="M579.1,319.9h25.8c0.5,0,0.9,0.4,0.9,0.9l0,0c0,0.5-0.4,0.9-0.9,0.9h-25.8c-0.5,0-0.9-0.4-0.9-0.9l0,0
	C578.1,320.4,578.6,319.9,579.1,319.9z"/>
<path class="st4" d="M579.1,324.4h25.8c0.5,0,0.9,0.4,0.9,0.9l0,0c0,0.5-0.4,0.9-0.9,0.9h-25.8c-0.5,0-0.9-0.4-0.9-0.9l0,0
	C578.1,324.8,578.6,324.4,579.1,324.4z"/>
<path class="st7" d="M439.1,222.3h36.5c6.6,0,12,5.4,12,12v17.8c0,6.6-5.4,12-12,12h-36.5c-6.6,0-12-5.4-12-12v-17.8
	C427.1,227.7,432.5,222.3,439.1,222.3z"/>
<rect x="439.7" y="229" class="st5" width="9.1" height="28.3"/>
<rect x="452.9" y="247.9" class="st5" width="9.1" height="9.5"/>
<rect x="466" y="239.9" class="st5" width="9.1" height="17.5"/>
<path class="st5" d="M184.8,152.9c-21.1,0-38.3,17.1-38.3,38.3l0,0h76.6C223.1,170,205.9,152.9,184.8,152.9L184.8,152.9z"/>
<line class="st13" x1="184.8" y1="139.9" x2="184.8" y2="1"/>
<path class="st14" d="M485.2,574.7c0,2.4-1.4,17.3,1.4,18.7s33.2,2.2,34.6,0.8s2.2-4.3,1-5.1s-13-3.2-14.6-4.3s-3.8-7-3-10.1"/>
<path class="st6" d="M394.1,379.2l17.1-6.1c-0.7-31.3-8-101.1-18.4-111.5c-2.4-2.4-50.7-6.7-59.3-6.7c-51.4,0-66.6,5.9-70.5,9.7
	c-12,12-15.7,67.6-15.7,87.1s55,29.6,55,29.6l64.5,4.4c0,0,14.1,1.5,26.4,2.2C393.4,384.1,394.1,379.2,394.1,379.2z"/>
<path class="st14" d="M445.2,397.4c4.7-1.4,51.3-9,61.5,1s42.1,153.4,42.1,156.7H523l-34.8-74.8"/>
<path class="st15" d="M275.4,384.6c-1.2,5.9-8.2,12.1-8.2,44c0,44.1,36.1,45,49.1,45c40.4,0,105.7-12,110.1-14.2
	c2.9,4.9,56.9,115,57.1,117.5h24.8c0,0-15.4-164.7-43.2-183.4C456.1,387.5,296.1,381.1,275.4,384.6z"/>
<path class="st16" d="M420.8,352.4c-6.5,0-11.9,1.5-26.7,4.5l-0.8,28.2c14-5.6,17.2-13.5,21.3-13.5c10.1,0,15.4,5.2,21.4,5.2
	c4.2,0,11.7-3.3,11.7-7.7C447.8,359.8,428.9,352.4,420.8,352.4z"/>
<path class="st14" d="M524.6,553.1c0,2.4-1.4,17.3,1.4,18.7s33.2,2.2,34.6,0.8s2.2-4.3,1-5.1s-13-3.2-14.6-4.3s-3.8-7-3-10.1"/>
<path class="st16" d="M342.6,261.5c0,3.8-21.9,3.9-21.9,0v-30.7h21.9V261.5z"/>
<path class="st14" d="M335.5,241c-2,0-14.8,5.6-14.8,8.8v-16.6C323.9,233.1,335.5,241,335.5,241z"/>
<circle class="st16" cx="339.7" cy="215.8" r="26.5"/>
<path class="st14" d="M367.1,195c-3.3,5.2-10.1,7.6-17.6,7.6c-6.3,0-15.5-1.8-22.1,1.9c-3.5,2-7.6,6.6-8.4,15.7
	c0,1.6-1.8,7.6-1.8,9.6c0,1.3-1.5,2.2-4,2.2c-1.3,0-3.8-2.1-3.8-5.3c0-3.7,1.5-5,1.5-8.1s-3.8-6.1-3.8-14.8c0-12.5,8-20.2,13.7-20.2
	c5.2,0,6.8,1.2,7.4,1.7c0-11.4,15-16.6,21-16.6c6.8,0,10,2.8,10,6.3c0,5.7-2.7,10.5-4.1,11.6c3.1-2.8,7.1-4.3,11.3-4.3
	c7.8,0,10.4,5.1,10.4,8.6c0,7.6-9.1,14.7-12.5,14.7c-0.9-1.8-1.9-3.5-3-5.2"/>
<circle class="st16" cx="319.8" cy="219.3" r="5.6"/>
<ellipse class="st17" cx="366.5" cy="218.4" rx="4.4" ry="2.3"/>
<ellipse class="st17" cx="339" cy="218.4" rx="4.4" ry="2.3"/>
<path class="st2" d="M355.8,213.6c0.8,1.2,5,6.1,0.6,8.1"/>
<path class="st2" d="M347.6,227.4c-1.3,0-3.4-1.6-4.4-3.1"/>
<path class="st2" d="M382.5,298.6c2,4.2,11.6,45.2,11.6,58.2"/>
<path class="st16" d="M247.3,348.4c0,46.1,0.4,59.5,18.9,59.5c42.6,0,107.1-35,118.6-35c10.1,0,15.5,5.2,21.4,5.2
	c4.2,0,11.7-3.3,11.7-7.7c0-9.4-18.9-16.7-27-16.7c-18.2,0-90.7,17.5-92.4,17.5s-4.8-0.8-4.8-3.8c0-5.4,3.5-17.9,4-19H247.3z"/>
<path class="st2" d="M308.4,308.2c-1.2,3.5-10.7,39.8-11.8,44.2"/>
<path class="st4" d="M675.7,592.4L675.7,592.4c-2.7,0.7-5.5-0.9-6.3-3.6L618.3,394c-0.7-2.7,0.9-5.5,3.6-6.3l0,0
	c2.7-0.7,5.5,0.9,6.3,3.6L679.4,586C680.1,588.9,678.4,591.7,675.7,592.4z"/>
<path class="st4" d="M614.1,387.8L614.1,387.8c2.7,0.7,4.4,3.5,3.6,6.3l-51.2,194.7c-0.7,2.7-3.5,4.4-6.3,3.6l0,0
	c-2.7-0.7-4.4-3.5-3.6-6.3l51.2-194.7C608.6,388.7,611.4,387,614.1,387.8z"/>
<path class="st7" d="M543.5,387.8L543.5,387.8c2.7,0.7,4.4,3.5,3.6,6.3l-51.2,194.7c-0.7,2.7-3.5,4.4-6.3,3.6l0,0
	c-2.7-0.7-4.4-3.5-3.6-6.3l51.2-194.7C537.9,388.7,540.7,387,543.5,387.8z"/>
<path class="st7" d="M604.2,588.8L604.2,588.8c-2.7,0.7-5.5-0.9-6.2-3.7l-50.3-195.3c-0.7-2.7,0.9-5.5,3.7-6.2l0,0
	c2.7-0.7,5.5,0.9,6.2,3.7l50.3,195.3C608.6,585.3,606.9,588.1,604.2,588.8z"/>
<path class="st4" d="M255,387.8L255,387.8c2.7,0.7,4.4,3.5,3.6,6.3l-51.2,194.7c-0.7,2.7-3.5,4.4-6.3,3.6l0,0
	c-2.7-0.7-4.4-3.5-3.6-6.3l51.2-194.7C249.5,388.7,252.3,387,255,387.8z"/>
<path class="st4" d="M315.8,592.4L315.8,592.4c-2.7,0.7-5.5-0.9-6.3-3.6L258.3,394c-0.7-2.7,0.9-5.5,3.6-6.3l0,0
	c2.7-0.7,5.5,0.9,6.3,3.6L319.4,586C320.1,588.9,318.5,591.7,315.8,592.4z"/>
<path class="st7" d="M154.1,378.1h495.2c2.5,0,4.5,2,4.5,4.5v6.1c0,2.5-2,4.5-4.5,4.5H154.1c-2.5,0-4.5-2-4.5-4.5v-6.1
	C149.6,380.2,151.6,378.1,154.1,378.1z"/>
<path class="st7" d="M181.9,387.8L181.9,387.8c2.7,0.7,4.4,3.5,3.6,6.3l-51.2,194.7c-0.7,2.7-3.5,4.4-6.3,3.6l0,0
	c-2.7-0.7-4.4-3.5-3.6-6.3l51.2-194.7C176.3,388.7,179.1,387,181.9,387.8z"/>
<path class="st7" d="M242.6,592.4L242.6,592.4c-2.7,0.7-5.5-0.9-6.3-3.6L185.1,394c-0.7-2.7,0.9-5.5,3.6-6.3l0,0
	c2.7-0.7,5.5,0.9,6.3,3.6L246.2,586C247,588.9,245.3,591.7,242.6,592.4z"/>
<path d="M520.3,378.1h-92.5l16.8-57.6c0.9-2.9,3.5-4.8,6.5-4.8h78.5c3.7-0.1,6.7,2.9,6.7,6.5c0,0.6-0.1,1.3-0.2,1.9L520.3,378.1z"/>
<circle class="st9" cx="485.4" cy="346.9" r="5.7"/>
<rect x="373.9" y="374.1" width="64.9" height="4"/>
</svg>
